<mxfile host="app.diagrams.net" agent="Mozilla/5.0 (Windows NT 10.0; Win64; x64) AppleWebKit/537.36 (KHTML, like Gecko) Chrome/131.0.0.0 Safari/537.36" version="25.0.3">
  <diagram name="Page-1" id="jcIbqjNvUO0GuNZ87uYU">
    <mxGraphModel dx="1444" dy="825" grid="1" gridSize="10" guides="1" tooltips="1" connect="1" arrows="1" fold="1" page="1" pageScale="1" pageWidth="850" pageHeight="1100" math="0" shadow="0">
      <root>
        <mxCell id="0" />
        <mxCell id="1" parent="0" />
        <mxCell id="GfokzzcRMbjAe4mJGQ3S-2" value="&lt;font face=&quot;Times New Roman&quot; style=&quot;font-size: 14px;&quot;&gt;Data Profile&lt;/font&gt;" style="strokeWidth=2;html=1;shape=mxgraph.flowchart.database;whiteSpace=wrap;fontStyle=1;fillColor=#f5f5f5;strokeColor=#666666;gradientColor=#b3b3b3;" parent="1" vertex="1">
          <mxGeometry x="270" y="50" width="130" height="60" as="geometry" />
        </mxCell>
        <mxCell id="dR9FGi4Ol1UaATctFKv2-4" value="" style="edgeStyle=orthogonalEdgeStyle;rounded=0;orthogonalLoop=1;jettySize=auto;html=1;" edge="1" parent="1" source="GfokzzcRMbjAe4mJGQ3S-3" target="GfokzzcRMbjAe4mJGQ3S-18">
          <mxGeometry relative="1" as="geometry" />
        </mxCell>
        <mxCell id="GfokzzcRMbjAe4mJGQ3S-3" value="&lt;font style=&quot;font-size: 10px;&quot;&gt;Data Rekapan Rekanan&lt;/font&gt;" style="strokeWidth=2;html=1;shape=mxgraph.flowchart.database;whiteSpace=wrap;fontStyle=1;fillColor=#f5f5f5;gradientColor=#b3b3b3;strokeColor=#666666;" parent="1" vertex="1">
          <mxGeometry x="450" y="50" width="120" height="60" as="geometry" />
        </mxCell>
        <mxCell id="GfokzzcRMbjAe4mJGQ3S-4" value="Rekapan Pendaftaran" style="strokeWidth=2;html=1;shape=mxgraph.flowchart.database;whiteSpace=wrap;fontStyle=1;fillColor=#f5f5f5;gradientColor=#b3b3b3;strokeColor=#666666;" parent="1" vertex="1">
          <mxGeometry x="265" y="140" width="140" height="60" as="geometry" />
        </mxCell>
        <mxCell id="GfokzzcRMbjAe4mJGQ3S-6" value="Rekapan Prakualifikasi" style="strokeWidth=2;html=1;shape=mxgraph.flowchart.database;whiteSpace=wrap;fontStyle=1;fillColor=#f5f5f5;gradientColor=#b3b3b3;strokeColor=#666666;" parent="1" vertex="1">
          <mxGeometry x="265" y="220" width="140" height="60" as="geometry" />
        </mxCell>
        <mxCell id="GfokzzcRMbjAe4mJGQ3S-7" value="Rekapan Proposal" style="strokeWidth=2;html=1;shape=mxgraph.flowchart.database;whiteSpace=wrap;fontStyle=1;fillColor=#f5f5f5;gradientColor=#b3b3b3;strokeColor=#666666;" parent="1" vertex="1">
          <mxGeometry x="270" y="300" width="150" height="60" as="geometry" />
        </mxCell>
        <mxCell id="GfokzzcRMbjAe4mJGQ3S-8" value="Rekapan Negosiasi" style="strokeWidth=2;html=1;shape=mxgraph.flowchart.database;whiteSpace=wrap;fontStyle=1;fillColor=#f5f5f5;gradientColor=#b3b3b3;strokeColor=#666666;" parent="1" vertex="1">
          <mxGeometry x="275" y="390" width="140" height="60" as="geometry" />
        </mxCell>
        <mxCell id="GfokzzcRMbjAe4mJGQ3S-10" value="Rekapan Kontrak" style="strokeWidth=2;html=1;shape=mxgraph.flowchart.database;whiteSpace=wrap;fontStyle=1;fillColor=#f5f5f5;gradientColor=#b3b3b3;strokeColor=#666666;" parent="1" vertex="1">
          <mxGeometry x="275" y="470" width="140" height="60" as="geometry" />
        </mxCell>
        <mxCell id="GfokzzcRMbjAe4mJGQ3S-11" value="&lt;font style=&quot;font-size: 10px;&quot;&gt;Rekapan Gagal Rekanan&lt;/font&gt;" style="strokeWidth=2;html=1;shape=mxgraph.flowchart.database;whiteSpace=wrap;fontStyle=1;fillColor=#f5f5f5;gradientColor=#b3b3b3;strokeColor=#666666;" parent="1" vertex="1">
          <mxGeometry x="880" y="370" width="170" height="60" as="geometry" />
        </mxCell>
        <mxCell id="dR9FGi4Ol1UaATctFKv2-11" value="" style="edgeStyle=orthogonalEdgeStyle;rounded=0;orthogonalLoop=1;jettySize=auto;html=1;" edge="1" parent="1" source="GfokzzcRMbjAe4mJGQ3S-12" target="GfokzzcRMbjAe4mJGQ3S-11">
          <mxGeometry relative="1" as="geometry" />
        </mxCell>
        <mxCell id="GfokzzcRMbjAe4mJGQ3S-12" value="&lt;font style=&quot;font-size: 10px;&quot;&gt;Rekapan Gagal PBJ&lt;/font&gt;" style="strokeWidth=2;html=1;shape=mxgraph.flowchart.database;whiteSpace=wrap;fontStyle=1;fillColor=#f5f5f5;gradientColor=#b3b3b3;strokeColor=#666666;" parent="1" vertex="1">
          <mxGeometry x="880" y="470" width="170" height="60" as="geometry" />
        </mxCell>
        <mxCell id="dR9FGi4Ol1UaATctFKv2-7" value="" style="edgeStyle=orthogonalEdgeStyle;rounded=0;orthogonalLoop=1;jettySize=auto;html=1;" edge="1" parent="1" source="GfokzzcRMbjAe4mJGQ3S-13" target="GfokzzcRMbjAe4mJGQ3S-19">
          <mxGeometry relative="1" as="geometry" />
        </mxCell>
        <mxCell id="GfokzzcRMbjAe4mJGQ3S-13" value="&lt;b&gt;Rekapan PIN Berdasarkan Klarifikasi&lt;/b&gt;" style="strokeWidth=2;html=1;shape=mxgraph.flowchart.database;whiteSpace=wrap;fillColor=#f5f5f5;gradientColor=#b3b3b3;strokeColor=#666666;" parent="1" vertex="1">
          <mxGeometry x="480" y="555" width="150" height="80" as="geometry" />
        </mxCell>
        <mxCell id="dR9FGi4Ol1UaATctFKv2-12" value="" style="edgeStyle=orthogonalEdgeStyle;rounded=0;orthogonalLoop=1;jettySize=auto;html=1;" edge="1" parent="1" source="GfokzzcRMbjAe4mJGQ3S-15" target="GfokzzcRMbjAe4mJGQ3S-17">
          <mxGeometry relative="1" as="geometry" />
        </mxCell>
        <mxCell id="GfokzzcRMbjAe4mJGQ3S-15" value="&lt;font style=&quot;font-size: 10px;&quot;&gt;Rekapan Proyek Selssai&lt;/font&gt;" style="strokeWidth=2;html=1;shape=mxgraph.flowchart.database;whiteSpace=wrap;fontStyle=1;fillColor=#f5f5f5;gradientColor=#b3b3b3;strokeColor=#666666;" parent="1" vertex="1">
          <mxGeometry x="880" y="270" width="170" height="70" as="geometry" />
        </mxCell>
        <mxCell id="dR9FGi4Ol1UaATctFKv2-6" value="" style="edgeStyle=orthogonalEdgeStyle;rounded=0;orthogonalLoop=1;jettySize=auto;html=1;" edge="1" parent="1" source="GfokzzcRMbjAe4mJGQ3S-16" target="GfokzzcRMbjAe4mJGQ3S-13">
          <mxGeometry relative="1" as="geometry" />
        </mxCell>
        <mxCell id="GfokzzcRMbjAe4mJGQ3S-16" value="&lt;span style=&quot;font-size: 10px;&quot;&gt;Rekapan Monitoring Pasca Kontrak&lt;/span&gt;" style="strokeWidth=2;html=1;shape=mxgraph.flowchart.database;whiteSpace=wrap;fontStyle=1;fillColor=#f5f5f5;gradientColor=#b3b3b3;strokeColor=#666666;" parent="1" vertex="1">
          <mxGeometry x="270" y="560" width="170" height="70" as="geometry" />
        </mxCell>
        <mxCell id="dR9FGi4Ol1UaATctFKv2-5" value="" style="edgeStyle=orthogonalEdgeStyle;rounded=0;orthogonalLoop=1;jettySize=auto;html=1;" edge="1" parent="1" source="GfokzzcRMbjAe4mJGQ3S-17" target="GfokzzcRMbjAe4mJGQ3S-20">
          <mxGeometry relative="1" as="geometry" />
        </mxCell>
        <mxCell id="GfokzzcRMbjAe4mJGQ3S-17" value="&lt;b&gt;Rekapitulisasi Kegiatan Proyek&lt;/b&gt;" style="strokeWidth=2;html=1;shape=mxgraph.flowchart.database;whiteSpace=wrap;fillColor=#f5f5f5;gradientColor=#b3b3b3;strokeColor=#666666;" parent="1" vertex="1">
          <mxGeometry x="885" y="160" width="160" height="80" as="geometry" />
        </mxCell>
        <mxCell id="GfokzzcRMbjAe4mJGQ3S-18" value="&lt;b&gt;Rekapan PIN Berdasarkan Kelompok Keahlian&lt;/b&gt;" style="strokeWidth=2;html=1;shape=mxgraph.flowchart.database;whiteSpace=wrap;fillColor=#f5f5f5;gradientColor=#b3b3b3;strokeColor=#666666;" parent="1" vertex="1">
          <mxGeometry x="650" y="40" width="170" height="80" as="geometry" />
        </mxCell>
        <mxCell id="GfokzzcRMbjAe4mJGQ3S-19" value="&lt;font style=&quot;font-size: 10px;&quot;&gt;&lt;b&gt;Rekap Data Kontrak Berdasarkan Sumber Informasi Peluang&lt;/b&gt;&lt;/font&gt;" style="strokeWidth=2;html=1;shape=mxgraph.flowchart.database;whiteSpace=wrap;fillColor=#f5f5f5;gradientColor=#b3b3b3;strokeColor=#666666;" parent="1" vertex="1">
          <mxGeometry x="670" y="555" width="170" height="80" as="geometry" />
        </mxCell>
        <mxCell id="GfokzzcRMbjAe4mJGQ3S-20" value="&lt;b&gt;Laporan PBJ&lt;/b&gt;" style="shape=cylinder3;whiteSpace=wrap;html=1;boundedLbl=1;backgroundOutline=1;size=15;" parent="1" vertex="1">
          <mxGeometry x="935" y="50" width="60" height="80" as="geometry" />
        </mxCell>
        <mxCell id="dR9FGi4Ol1UaATctFKv2-9" value="" style="edgeStyle=orthogonalEdgeStyle;rounded=0;orthogonalLoop=1;jettySize=auto;html=1;" edge="1" parent="1" source="GfokzzcRMbjAe4mJGQ3S-22" target="GfokzzcRMbjAe4mJGQ3S-12">
          <mxGeometry relative="1" as="geometry" />
        </mxCell>
        <mxCell id="GfokzzcRMbjAe4mJGQ3S-22" value="&lt;b&gt;Rekapan Proyek Gagal&lt;/b&gt;" style="strokeWidth=2;html=1;shape=mxgraph.flowchart.database;whiteSpace=wrap;fillColor=#f5f5f5;gradientColor=#b3b3b3;strokeColor=#666666;" parent="1" vertex="1">
          <mxGeometry x="880" y="560" width="170" height="80" as="geometry" />
        </mxCell>
        <mxCell id="GfokzzcRMbjAe4mJGQ3S-23" value="" style="endArrow=classic;html=1;rounded=0;exitX=0.5;exitY=1;exitDx=0;exitDy=0;exitPerimeter=0;entryX=0.5;entryY=0;entryDx=0;entryDy=0;entryPerimeter=0;" parent="1" source="GfokzzcRMbjAe4mJGQ3S-2" target="GfokzzcRMbjAe4mJGQ3S-4" edge="1">
          <mxGeometry width="50" height="50" relative="1" as="geometry">
            <mxPoint x="630" y="370" as="sourcePoint" />
            <mxPoint x="680" y="320" as="targetPoint" />
          </mxGeometry>
        </mxCell>
        <mxCell id="GfokzzcRMbjAe4mJGQ3S-24" value="" style="endArrow=classic;html=1;rounded=0;exitX=0.5;exitY=1;exitDx=0;exitDy=0;exitPerimeter=0;entryX=0.5;entryY=0;entryDx=0;entryDy=0;entryPerimeter=0;" parent="1" source="GfokzzcRMbjAe4mJGQ3S-4" target="GfokzzcRMbjAe4mJGQ3S-6" edge="1">
          <mxGeometry width="50" height="50" relative="1" as="geometry">
            <mxPoint x="630" y="370" as="sourcePoint" />
            <mxPoint x="680" y="320" as="targetPoint" />
          </mxGeometry>
        </mxCell>
        <mxCell id="GfokzzcRMbjAe4mJGQ3S-25" value="" style="endArrow=classic;startArrow=classic;html=1;rounded=0;exitX=1;exitY=0.5;exitDx=0;exitDy=0;exitPerimeter=0;entryX=0;entryY=0.5;entryDx=0;entryDy=0;entryPerimeter=0;" parent="1" source="GfokzzcRMbjAe4mJGQ3S-2" target="GfokzzcRMbjAe4mJGQ3S-3" edge="1">
          <mxGeometry width="50" height="50" relative="1" as="geometry">
            <mxPoint x="630" y="370" as="sourcePoint" />
            <mxPoint x="680" y="320" as="targetPoint" />
          </mxGeometry>
        </mxCell>
        <mxCell id="GfokzzcRMbjAe4mJGQ3S-26" value="" style="endArrow=classic;html=1;rounded=0;exitX=0.578;exitY=1.025;exitDx=0;exitDy=0;exitPerimeter=0;entryX=0.5;entryY=0;entryDx=0;entryDy=0;entryPerimeter=0;" parent="1" source="GfokzzcRMbjAe4mJGQ3S-6" target="GfokzzcRMbjAe4mJGQ3S-7" edge="1">
          <mxGeometry width="50" height="50" relative="1" as="geometry">
            <mxPoint x="630" y="370" as="sourcePoint" />
            <mxPoint x="680" y="320" as="targetPoint" />
          </mxGeometry>
        </mxCell>
        <mxCell id="GfokzzcRMbjAe4mJGQ3S-27" value="" style="endArrow=classic;html=1;rounded=0;exitX=0.5;exitY=1;exitDx=0;exitDy=0;exitPerimeter=0;" parent="1" source="GfokzzcRMbjAe4mJGQ3S-7" target="GfokzzcRMbjAe4mJGQ3S-8" edge="1">
          <mxGeometry width="50" height="50" relative="1" as="geometry">
            <mxPoint x="630" y="370" as="sourcePoint" />
            <mxPoint x="680" y="320" as="targetPoint" />
          </mxGeometry>
        </mxCell>
        <mxCell id="GfokzzcRMbjAe4mJGQ3S-28" value="" style="endArrow=classic;html=1;rounded=0;exitX=0.5;exitY=1;exitDx=0;exitDy=0;exitPerimeter=0;entryX=0.5;entryY=0;entryDx=0;entryDy=0;entryPerimeter=0;" parent="1" source="GfokzzcRMbjAe4mJGQ3S-8" target="GfokzzcRMbjAe4mJGQ3S-10" edge="1">
          <mxGeometry width="50" height="50" relative="1" as="geometry">
            <mxPoint x="630" y="370" as="sourcePoint" />
            <mxPoint x="680" y="320" as="targetPoint" />
          </mxGeometry>
        </mxCell>
        <mxCell id="GfokzzcRMbjAe4mJGQ3S-30" value="&lt;font style=&quot;font-size: 18px;&quot; face=&quot;Verdana&quot;&gt;Data Inventory bagian &lt;br&gt;Rekapan Data&amp;nbsp;&lt;/font&gt;" style="ellipse;shape=cloud;whiteSpace=wrap;html=1;" parent="1" vertex="1">
          <mxGeometry x="470" y="220" width="350" height="220" as="geometry" />
        </mxCell>
        <mxCell id="dR9FGi4Ol1UaATctFKv2-13" value="" style="rounded=0;whiteSpace=wrap;html=1;fillColor=none;" vertex="1" parent="1">
          <mxGeometry x="220" y="20" width="890" height="650" as="geometry" />
        </mxCell>
      </root>
    </mxGraphModel>
  </diagram>
</mxfile>
